<svg xmlns="http://www.w3.org/2000/svg" viewBox="0 0 600 350">
  <rect width="600" height="350" fill="#f9fafb"/>
  <text x="300" y="30" text-anchor="middle" font-family="system-ui" font-size="16" font-weight="600" fill="#111827">Paper Gains Comparison (Middle 5%)</text>
  
  <!-- Y axis -->
  <text x="45" y="75" text-anchor="end" font-family="system-ui" font-size="11" fill="#6b7280">$2.5M</text>
  <text x="45" y="140" text-anchor="end" font-family="system-ui" font-size="11" fill="#6b7280">$2.0M</text>
  <text x="45" y="205" text-anchor="end" font-family="system-ui" font-size="11" fill="#6b7280">$1.5M</text>
  <text x="45" y="270" text-anchor="end" font-family="system-ui" font-size="11" fill="#6b7280">$1.0M</text>
  <text x="45" y="300" text-anchor="end" font-family="system-ui" font-size="11" fill="#6b7280">$0.5M</text>
  
  <!-- 5 Year bars -->
  <text x="175" y="320" text-anchor="middle" font-family="system-ui" font-size="12" fill="#111827">5 Years</text>
  <rect x="120" y="205" width="50" height="95" fill="#3b82f6" rx="4"/>
  <text x="145" y="195" text-anchor="middle" font-family="system-ui" font-size="11" fill="#3b82f6" font-weight="600">$882k</text>
  <rect x="180" y="260" width="50" height="40" fill="#22c55e" rx="4"/>
  <text x="205" y="250" text-anchor="middle" font-family="system-ui" font-size="11" fill="#22c55e" font-weight="600">$465k</text>
  
  <!-- 10 Year bars -->
  <text x="425" y="320" text-anchor="middle" font-family="system-ui" font-size="12" fill="#111827">10 Years</text>
  <rect x="370" y="90" width="50" height="210" fill="#3b82f6" rx="4"/>
  <text x="395" y="80" text-anchor="middle" font-family="system-ui" font-size="11" fill="#3b82f6" font-weight="600">$2.0M</text>
  <rect x="430" y="170" width="50" height="130" fill="#22c55e" rx="4"/>
  <text x="455" y="160" text-anchor="middle" font-family="system-ui" font-size="11" fill="#22c55e" font-weight="600">$1.1M</text>
  
  <!-- Legend -->
  <rect x="500" y="60" width="16" height="16" fill="#3b82f6" rx="2"/>
  <text x="522" y="72" font-family="system-ui" font-size="12" fill="#111827">Seabrook</text>
  <rect x="500" y="85" width="16" height="16" fill="#22c55e" rx="2"/>
  <text x="522" y="97" font-family="system-ui" font-size="12" fill="#111827">Peninsular</text>
</svg>
