<svg xmlns="http://www.w3.org/2000/svg" viewBox="0 0 600 400">
  <rect width="600" height="400" fill="#f9fafb"/>
  <text x="300" y="30" text-anchor="middle" font-family="system-ui" font-size="16" font-weight="600" fill="#111827">Portfolio Value by Option (10yr @ 5%)</text>
  
  <!-- Bars -->
  <text x="55" y="85" font-family="system-ui" font-size="11" fill="#111827">Keep Both</text>
  <rect x="130" y="70" width="380" height="30" fill="#3b82f6" rx="4"/>
  <text x="520" y="90" font-family="system-ui" font-size="11" fill="white">$7.9M</text>
  
  <text x="55" y="135" font-family="system-ui" font-size="11" fill="#111827">Sell Pen</text>
  <rect x="130" y="120" width="250" height="30" fill="#22c55e" rx="4"/>
  <text x="390" y="140" font-family="system-ui" font-size="11" fill="white">$5.2M</text>
  
  <text x="55" y="185" font-family="system-ui" font-size="11" fill="#111827">Sell Seabrook</text>
  <rect x="130" y="170" width="130" height="30" fill="#f59e0b" rx="4"/>
  <text x="270" y="190" font-family="system-ui" font-size="11" fill="white">$2.7M</text>
  
  <text x="55" y="235" font-family="system-ui" font-size="11" fill="#111827">Sell Both</text>
  <rect x="130" y="220" width="110" height="30" fill="#6b7280" rx="4"/>
  <text x="250" y="240" font-family="system-ui" font-size="11" fill="white">$2.3M (cash)</text>
  
  <!-- Risk labels -->
  <text x="300" y="290" text-anchor="middle" font-family="system-ui" font-size="14" font-weight="600" fill="#111827">Risk vs Reward Summary</text>
  
  <rect x="60" y="310" width="120" height="50" fill="#fee2e2" rx="8" stroke="#dc2626" stroke-width="2"/>
  <text x="120" y="335" text-anchor="middle" font-family="system-ui" font-size="11" fill="#dc2626">Keep Both</text>
  <text x="120" y="350" text-anchor="middle" font-family="system-ui" font-size="9" fill="#dc2626">High Risk/High Reward</text>
  
  <rect x="200" y="310" width="120" height="50" fill="#dcfce7" rx="8" stroke="#22c55e" stroke-width="2"/>
  <text x="260" y="335" text-anchor="middle" font-family="system-ui" font-size="11" fill="#22c55e">Sell Pen</text>
  <text x="260" y="350" text-anchor="middle" font-family="system-ui" font-size="9" fill="#22c55e">Balanced ⭐</text>
  
  <rect x="340" y="310" width="120" height="50" fill="#fef3c7" rx="8" stroke="#f59e0b" stroke-width="2"/>
  <text x="400" y="335" text-anchor="middle" font-family="system-ui" font-size="11" fill="#f59e0b">Sell Seabrook</text>
  <text x="400" y="350" text-anchor="middle" font-family="system-ui" font-size="9" fill="#f59e0b">Low Risk/Lower Reward</text>
  
  <rect x="480" y="310" width="100" height="50" fill="#f3f4f6" rx="8" stroke="#6b7280" stroke-width="2"/>
  <text x="530" y="335" text-anchor="middle" font-family="system-ui" font-size="11" fill="#6b7280">Sell Both</text>
  <text x="530" y="350" text-anchor="middle" font-family="system-ui" font-size="9" fill="#6b7280">Flexible</text>
</svg>
